<svg xmlns="http://www.w3.org/2000/svg" xmlns:xlink="http://www.w3.org/1999/xlink" width="328" zoomAndPan="magnify" viewBox="0 0 246 120.749998" height="161" preserveAspectRatio="xMidYMid meet" version="1.0"><defs><g/><clipPath id="545aa944d4"><rect x="0" width="125" y="0" height="89"/></clipPath></defs><path fill="#ffffff" d="M 44.695312 54.640625 L 63.453125 44.316406 L 63.367188 53.59375 C 63.367188 53.59375 53.183594 59.199219 52.996094 59.300781 C 52.984375 60.449219 52.800781 77.207031 52.804688 79.234375 C 52.804688 79.234375 61.347656 74.820312 63.179688 73.808594 C 63.179688 76.15625 63.101562 82.164062 63.09375 83.085938 C 61.976562 83.691406 44.339844 93.28125 44.339844 93.28125 Z M 44.695312 54.640625 " fill-opacity="1" fill-rule="nonzero"/><path fill="#ffffff" d="M 76.3125 61.117188 C 76.3125 61.117188 62.648438 68.667969 57.558594 71.445312 C 57.558594 70.46875 57.640625 64.8125 57.640625 62.167969 C 59.410156 61.191406 67.828125 56.5625 68.015625 56.457031 C 68.023438 55.308594 68.207031 36.523438 68.207031 36.523438 L 57.828125 41.949219 L 57.914062 32.675781 L 76.667969 22.476562 Z M 76.3125 61.117188 " fill-opacity="1" fill-rule="nonzero"/><g transform="matrix(1, 0, 0, 1, 100, 15)"><g clip-path="url(#545aa944d4)"><g fill="#ffffff" fill-opacity="1"><g transform="translate(0.352062, 69.776739)"><g><path d="M 2.203125 0 L 2.203125 -1.546875 L 3.296875 -1.546875 C 4.285156 -1.546875 5.050781 -1.675781 5.59375 -1.9375 C 6.132812 -2.195312 6.5 -2.722656 6.6875 -3.515625 C 6.882812 -4.316406 6.984375 -5.515625 6.984375 -7.109375 L 6.984375 -39.1875 C 6.984375 -40.78125 6.882812 -41.953125 6.6875 -42.703125 C 6.5 -43.460938 6.132812 -43.96875 5.59375 -44.21875 C 5.050781 -44.476562 4.285156 -44.609375 3.296875 -44.609375 L 2.203125 -44.609375 L 2.203125 -46.171875 L 14.609375 -46.171875 C 18.703125 -46.171875 21.6875 -45.054688 23.5625 -42.828125 C 25.4375 -40.609375 26.375 -37.28125 26.375 -32.84375 C 26.375 -31.03125 26.160156 -29.257812 25.734375 -27.53125 C 25.304688 -25.8125 24.613281 -24.25 23.65625 -22.84375 C 22.707031 -21.445312 21.425781 -20.335938 19.8125 -19.515625 C 18.195312 -18.703125 16.207031 -18.296875 13.84375 -18.296875 L 9.703125 -18.296875 L 9.703125 -6.984375 C 9.703125 -5.429688 9.796875 -4.265625 9.984375 -3.484375 C 10.179688 -2.710938 10.546875 -2.195312 11.078125 -1.9375 C 11.617188 -1.675781 12.390625 -1.546875 13.390625 -1.546875 L 15.1875 -1.546875 L 15.1875 0 Z M 13.90625 -20.171875 C 15.800781 -20.171875 17.375 -20.523438 18.625 -21.234375 C 19.875 -21.953125 20.863281 -22.910156 21.59375 -24.109375 C 22.320312 -25.316406 22.835938 -26.675781 23.140625 -28.1875 C 23.441406 -29.695312 23.59375 -31.226562 23.59375 -32.78125 C 23.59375 -36.613281 22.90625 -39.476562 21.53125 -41.375 C 20.15625 -43.269531 17.785156 -44.21875 14.421875 -44.21875 L 9.640625 -44.21875 L 9.640625 -20.171875 Z M 13.90625 -20.171875 "/></g></g></g><g fill="#ffffff" fill-opacity="1"><g transform="translate(29.056842, 69.776739)"><g><path d="M 2.203125 0 L 2.203125 -1.546875 L 3.296875 -1.546875 C 4.328125 -1.546875 5.113281 -1.675781 5.65625 -1.9375 C 6.195312 -2.195312 6.5625 -2.710938 6.75 -3.484375 C 6.945312 -4.265625 7.046875 -5.429688 7.046875 -6.984375 L 7.046875 -39.1875 C 7.046875 -40.78125 6.9375 -41.953125 6.71875 -42.703125 C 6.507812 -43.460938 6.144531 -43.96875 5.625 -44.21875 C 5.101562 -44.476562 4.328125 -44.609375 3.296875 -44.609375 L 2.203125 -44.609375 L 2.203125 -46.171875 L 13.640625 -46.171875 C 16.523438 -46.171875 18.851562 -45.71875 20.625 -44.8125 C 22.394531 -43.90625 23.6875 -42.566406 24.5 -40.796875 C 25.320312 -39.023438 25.734375 -36.804688 25.734375 -34.140625 C 25.734375 -31.335938 25.34375 -29.082031 24.5625 -27.375 C 23.789062 -25.675781 22.8125 -24.375 21.625 -23.46875 C 20.4375 -22.5625 19.195312 -21.875 17.90625 -21.40625 L 25.15625 -7.046875 C 26.101562 -5.191406 26.972656 -3.8125 27.765625 -2.90625 C 28.566406 -2 29.523438 -1.546875 30.640625 -1.546875 L 30.96875 -1.546875 L 30.96875 0 L 30.640625 0 C 29.347656 0 28.257812 -0.171875 27.375 -0.515625 C 26.5 -0.859375 25.691406 -1.460938 24.953125 -2.328125 C 24.222656 -3.191406 23.46875 -4.398438 22.6875 -5.953125 L 15.453125 -20.6875 L 9.703125 -20.6875 L 9.703125 -6.984375 C 9.703125 -5.429688 9.796875 -4.265625 9.984375 -3.484375 C 10.179688 -2.710938 10.535156 -2.195312 11.046875 -1.9375 C 11.566406 -1.675781 12.347656 -1.546875 13.390625 -1.546875 L 14.8125 -1.546875 L 14.8125 0 Z M 12.859375 -22.5625 C 16.359375 -22.5625 18.914062 -23.550781 20.53125 -25.53125 C 22.144531 -27.519531 22.953125 -30.367188 22.953125 -34.078125 C 22.953125 -36.234375 22.660156 -38.070312 22.078125 -39.59375 C 21.492188 -41.125 20.535156 -42.273438 19.203125 -43.046875 C 17.867188 -43.828125 16.082031 -44.21875 13.84375 -44.21875 L 9.703125 -44.21875 L 9.703125 -22.5625 Z M 12.859375 -22.5625 "/></g></g></g><g fill="#ffffff" fill-opacity="1"><g transform="translate(59.636485, 69.776739)"><g><path d="M 2.203125 0 L 2.203125 -1.546875 L 3.296875 -1.546875 C 4.328125 -1.546875 5.101562 -1.675781 5.625 -1.9375 C 6.144531 -2.195312 6.5 -2.710938 6.6875 -3.484375 C 6.882812 -4.265625 6.984375 -5.429688 6.984375 -6.984375 L 6.984375 -39.109375 C 6.984375 -40.710938 6.882812 -41.898438 6.6875 -42.671875 C 6.5 -43.453125 6.144531 -43.96875 5.625 -44.21875 C 5.101562 -44.476562 4.328125 -44.609375 3.296875 -44.609375 L 2.203125 -44.609375 L 2.203125 -46.171875 L 25.34375 -46.171875 L 25.671875 -35.4375 L 24.046875 -35.4375 L 23.859375 -38.53125 C 23.773438 -40.125 23.625 -41.332031 23.40625 -42.15625 C 23.1875 -42.976562 22.753906 -43.523438 22.109375 -43.796875 C 21.460938 -44.078125 20.429688 -44.21875 19.015625 -44.21875 L 9.640625 -44.21875 L 9.640625 -25.15625 L 21.921875 -25.15625 L 21.921875 -23.21875 L 9.640625 -23.21875 L 9.5625 -1.9375 L 20.6875 -1.9375 C 22.019531 -1.9375 23 -2.066406 23.625 -2.328125 C 24.25 -2.585938 24.679688 -3.0625 24.921875 -3.75 C 25.160156 -4.4375 25.320312 -5.382812 25.40625 -6.59375 L 25.671875 -10.734375 L 27.28125 -10.734375 L 27.03125 0 Z M 2.203125 0 "/></g></g></g><g fill="#ffffff" fill-opacity="1"><g transform="translate(89.375667, 69.776739)"><g><path d="M 2.203125 0 L 2.203125 -1.546875 L 3.109375 -1.546875 C 4.179688 -1.546875 5 -1.664062 5.5625 -1.90625 C 6.125 -2.144531 6.507812 -2.660156 6.71875 -3.453125 C 6.9375 -4.253906 7.046875 -5.472656 7.046875 -7.109375 L 7.046875 -39.3125 C 7.046875 -40.945312 6.9375 -42.128906 6.71875 -42.859375 C 6.507812 -43.597656 6.125 -44.070312 5.5625 -44.28125 C 5 -44.5 4.179688 -44.609375 3.109375 -44.609375 L 2.203125 -44.609375 L 2.203125 -46.171875 L 15.71875 -46.171875 C 19.207031 -46.171875 22.132812 -45.234375 24.5 -43.359375 C 26.875 -41.484375 28.664062 -38.773438 29.875 -35.234375 C 31.082031 -31.703125 31.6875 -27.414062 31.6875 -22.375 C 31.6875 -17.675781 31.113281 -13.644531 29.96875 -10.28125 C 28.820312 -6.914062 27.082031 -4.359375 24.75 -2.609375 C 22.425781 -0.867188 19.414062 0 15.71875 0 Z M 15.453125 -1.9375 C 18.472656 -1.9375 20.972656 -2.691406 22.953125 -4.203125 C 24.929688 -5.710938 26.414062 -7.972656 27.40625 -10.984375 C 28.40625 -14.003906 28.90625 -17.800781 28.90625 -22.375 C 28.90625 -26.9375 28.40625 -30.84375 27.40625 -34.09375 C 26.414062 -37.351562 24.929688 -39.851562 22.953125 -41.59375 C 20.972656 -43.34375 18.492188 -44.21875 15.515625 -44.21875 L 9.703125 -44.21875 L 9.703125 -1.9375 Z M 15.453125 -1.9375 "/></g></g></g></g></g></svg>